<svg width="16" height="16" viewBox="0 0 16 16" fill="none" xmlns="http://www.w3.org/2000/svg">
<g clip-path="url(#clip0_14_597)">
<path fill-rule="evenodd" clip-rule="evenodd" d="M7.99999 1.99996C4.68628 1.99996 1.99999 4.68625 1.99999 7.99996C1.99999 11.3137 4.68628 14 7.99999 14C11.3137 14 14 11.3137 14 7.99996C14 4.68625 11.3137 1.99996 7.99999 1.99996ZM0.666656 7.99996C0.666656 3.94987 3.9499 0.666626 7.99999 0.666626C12.0501 0.666626 15.3333 3.94987 15.3333 7.99996C15.3333 12.05 12.0501 15.3333 7.99999 15.3333C3.9499 15.3333 0.666656 12.05 0.666656 7.99996Z" fill="#220F80"/>
<path fill-rule="evenodd" clip-rule="evenodd" d="M7.52861 4.86189C7.78896 4.60154 8.21107 4.60154 8.47141 4.86189L11.1381 7.52855C11.3984 7.7889 11.3984 8.21101 11.1381 8.47136L8.47141 11.138C8.21107 11.3984 7.78896 11.3984 7.52861 11.138C7.26826 10.8777 7.26826 10.4556 7.52861 10.1952L9.72387 7.99996L7.52861 5.8047C7.26826 5.54435 7.26826 5.12224 7.52861 4.86189Z" fill="#220F80"/>
<path fill-rule="evenodd" clip-rule="evenodd" d="M4.66666 8.00004C4.66666 7.63185 4.96513 7.33337 5.33332 7.33337H10.6667C11.0348 7.33337 11.3333 7.63185 11.3333 8.00004C11.3333 8.36823 11.0348 8.66671 10.6667 8.66671H5.33332C4.96513 8.66671 4.66666 8.36823 4.66666 8.00004Z" fill="#220F80"/>
</g>
<defs>
<clipPath id="clip0_14_597">
<rect width="16" height="16" fill="white"/>
</clipPath>
</defs>
</svg>
